<svg width="205" height="36" viewBox="0 0 205 36" fill="none" xmlns="http://www.w3.org/2000/svg">
<g clip-path="url(#clip0_5_45)">
<path d="M49.7221 21.588C49.7221 21.588 41.8891 25.565 25.3605 27.1669C7.71703 28.8752 0.000244141 22.2944 0.000244141 22.2944C0.000244141 22.2944 6.29107 32.4749 30.3933 30.6458C45.1832 29.5238 65.7911 21.6025 65.7911 21.6025C65.7911 21.6025 58.0507 21.72 54.5543 21.6515C51.3383 21.588 49.7221 21.5872 49.7221 21.5872V21.588ZM78.1584 21.5963C77.6893 21.5963 77.2599 21.9509 77.2599 22.8304V28.3132H78.7541V24.4307L82.0106 28.0666C82.2638 28.3627 82.4615 28.4212 82.668 28.4212C83.1445 28.4212 83.5723 28.0567 83.5723 27.1776V21.7047H82.0723V25.5868L78.817 21.9513C78.5556 21.6548 78.3566 21.5963 78.1584 21.5963ZM94.0297 21.5979C93.5126 21.5979 93.187 21.955 92.9645 22.3401L89.5582 28.3148H91.5038L93.9966 23.9297L94.9493 25.678C95.1243 25.9938 95.3464 26.3979 95.4896 26.6346C95.2355 26.6148 94.862 26.6156 94.5443 26.6156H93.2094L92.2178 28.3144H98.3965L95.0767 22.3397C94.8467 21.9249 94.5455 21.5975 94.0297 21.5975V21.5979ZM68.056 21.706L66.9911 23.4254H69.484V28.3148H71.1284V23.4254H73.0272L74.0903 21.706H68.056ZM74.6169 21.706V28.3148H76.2609V21.706H74.6169ZM85.1091 21.706L84.0459 23.4254H86.5388V28.3148H88.1827V23.4254H90.0803L91.1451 21.706H85.1091ZM101.146 21.706C99.5337 21.706 98.8668 22.515 98.8668 23.7594C98.8668 24.8949 99.4948 25.6561 100.861 25.6561H103.751C104.14 25.6561 104.315 25.7852 104.315 26.1303C104.315 26.4754 104.14 26.6144 103.751 26.6144H99.7327L98.6753 28.3132H103.624C105.243 28.3132 105.902 27.5034 105.902 26.1505C105.902 24.9457 105.203 24.3432 103.909 24.3432V24.3445H101.017C100.636 24.3445 100.455 24.2154 100.455 23.8794C100.455 23.5429 100.636 23.4254 101.017 23.4254H104.702L105.76 21.706H101.146Z" fill="white"/>
<path d="M8.93076 5.1106C7.89863 5.1106 7.24916 5.81981 6.80445 6.58963L0.000244141 18.5267H3.88635L8.86623 9.76748L10.7704 13.2599C11.1187 13.8908 11.5634 14.699 11.8489 15.1732C11.3413 15.1332 10.5954 15.1328 9.96041 15.1328H7.29549L5.31479 18.5258H17.654L11.024 6.58963C10.5648 5.76084 9.96248 5.1106 8.93076 5.1106ZM66.0575 5.1106C65.1213 5.1106 64.2658 5.82104 64.2658 7.57676V18.5271H67.2472V10.7736L73.7511 18.0327C74.2583 18.6248 74.6546 18.7431 75.0674 18.7431C76.0193 18.7431 76.8752 18.0129 76.8752 16.2568V5.32707H73.8785V13.0814L67.3746 5.82146C66.8505 5.22935 66.4546 5.1106 66.0575 5.1106ZM54.414 5.11348C53.3836 5.11348 52.7324 5.82228 52.2881 6.59211L45.4827 18.5271H49.37L54.3499 9.76748L56.2537 13.2599C56.6024 13.8908 57.0471 14.699 57.3325 15.1732C56.825 15.1332 56.0787 15.1328 55.4437 15.1328H52.7792L50.7968 18.5271H63.1377L56.5073 6.59169C56.0481 5.76291 55.4449 5.11307 54.414 5.11307V5.11348ZM20.9246 5.32707L18.8314 8.76015H25.9371C27.7135 8.76015 29.0778 10.0804 29.0778 11.9747C29.0778 13.869 27.7623 15.1315 25.9371 15.1315H22.1309V10.2986H18.8309V18.5271H25.9367L25.9355 18.5254C29.6156 18.5254 32.3289 15.6061 32.3289 11.7986C32.3293 7.99156 29.6479 5.32707 25.9359 5.32707H20.9246ZM31.5698 5.32707L38.2152 17.2629C38.6752 18.0917 39.2945 18.7419 40.3096 18.7419C41.3244 18.7419 41.9743 18.0319 42.4343 17.2629L49.2248 5.32707H45.354L40.3725 14.0875L35.5986 5.32707H31.5698ZM84.872 5.32707C81.1924 5.32707 78.4803 7.97136 78.4803 11.7986C78.4803 15.6259 81.1924 18.5271 84.8716 18.5271H90.2015L92.3125 15.1328L92.3112 15.1315H84.8708C83.0775 15.1315 81.762 13.8681 81.762 11.9747C81.762 10.0817 83.094 8.76015 84.8708 8.76015H90.2015L92.3112 5.32707H84.872ZM93.4542 5.32707V18.5271H103.67L105.781 15.1328L105.779 15.1315H96.7521V13.3366H103.273L105.16 10.3373H96.7538V8.76056H103.622L105.748 5.32748L93.4542 5.32707Z" fill="white"/>
</g>
<path d="M173.512 13.1062C173.728 13.1059 173.944 13.1105 174.16 13.1202C176.326 13.2142 178.577 13.7576 180.13 15.38C182.247 17.5927 182.088 21.7178 179.938 23.8514C178.3 25.4785 175.646 25.8792 173.432 25.5321C173.056 25.4742 172.683 25.398 172.314 25.3038C172.159 25.2652 171.848 25.1533 171.733 25.1478L171.681 25.1979L171.689 25.3206C171.708 26.7461 171.693 28.216 171.694 29.6447C170.349 29.6925 168.694 29.6535 167.326 29.6542C167.258 28.5056 167.293 27.1148 167.293 25.9515L167.293 19.6378L167.292 16.137C167.291 15.6232 167.261 14.4696 167.365 14.0292C167.693 13.7799 171.128 13.2171 171.737 13.1884C172.109 13.1709 173.084 13.1213 173.512 13.1062ZM171.657 16.1241C171.76 17.1184 171.658 18.7204 171.694 19.7602C171.707 20.1255 171.715 21.968 171.674 22.2821C172.957 22.7553 174.738 23.0412 175.96 22.2602C176.685 21.7323 176.916 21.2235 177.071 20.3511C177.428 18.3413 176.56 16.351 174.358 16.0764C173.825 16.0097 172.974 16.0054 172.427 16.0636L171.657 16.1241Z" fill="white"/>
<path d="M153.08 8.98617C154.289 8.79469 155.646 9.72421 156.646 10.303L159.593 12.0086L155.245 14.4806C154.129 13.8002 153.543 13.3087 152.26 14.0808C151.102 14.7779 149.831 15.3899 148.74 16.1869C148.528 16.3418 148.376 16.5859 148.305 16.834C148.252 17.0274 148.219 17.2258 148.207 17.4261C148.156 18.2146 148.198 19.0322 148.199 19.8239C148.199 20.4895 148.142 21.2134 148.233 21.8715C148.258 22.0453 148.334 22.2172 148.421 22.3684C148.557 22.6045 148.762 22.7811 148.98 22.9396C149.454 23.2844 152.541 25.0658 153.017 25.1932C153.826 25.4099 154.586 24.8417 155.252 24.4645C156.48 25.1222 157.924 26.0503 159.116 26.6446C159.278 26.743 159.441 26.8398 159.604 26.9352C158.571 27.4507 157.445 28.2041 156.414 28.7593C155.632 29.1878 154.855 29.7504 153.962 29.9188C153.05 30.091 152.172 29.767 151.389 29.3175C150.582 28.8544 149.77 28.3782 148.959 27.9122L146.753 26.6453C144.116 25.1293 143.838 24.7371 143.849 21.6672L143.85 19.6029L143.847 17.1982C143.847 16.6147 143.825 15.8818 143.92 15.3183C143.998 14.8229 144.191 14.3525 144.483 13.9444C145.015 13.1925 145.896 12.7702 146.681 12.3192L148.699 11.1569L150.663 10.0244C151.547 9.51407 152.058 9.16187 153.08 8.98617Z" fill="white"/>
<path d="M197.344 13.0701L197.507 13.0667C199.527 13.0262 202.109 13.1504 203.661 14.5952C205.13 15.9623 204.869 18.4564 204.869 20.3051C204.863 21.8952 204.866 23.4854 204.879 25.0756C203.571 25.2944 202.255 25.4626 200.934 25.5797C198.732 25.758 194.539 25.8496 192.78 24.3587C191.251 23.0121 191.102 20.4472 192.839 19.2206C194.955 17.7265 198.205 17.795 200.679 18.1161C200.664 17.9046 200.65 17.6792 200.611 17.4711C200.294 15.7789 198.145 15.9545 196.853 15.9981C195.725 16.0361 194.638 16.1936 193.542 16.4214C193.531 15.9806 193.473 13.6796 193.605 13.4432C194.025 13.2051 196.748 13.0924 197.344 13.0701ZM198.272 23.0262C199.099 22.9831 199.814 22.9959 200.675 22.9362C200.636 22.1207 200.65 21.1721 200.663 20.3496C199.906 20.2738 199.207 20.2258 198.445 20.2521C197.497 20.2886 195.911 20.4032 195.951 21.7031C195.989 22.8995 197.383 22.9165 198.272 23.0262Z" fill="white"/>
<path d="M147.787 8.98414C148.518 8.88741 149.149 9.11278 149.798 9.41116C149.51 9.61307 148.853 9.96538 148.513 10.1601L145.944 11.634C145.436 11.9261 144.865 12.2357 144.417 12.6059C144.083 12.8802 143.794 13.2059 143.563 13.5706C143.246 14.0699 143.042 14.6316 142.963 15.2172C142.891 15.7258 142.908 16.3156 142.909 16.8358L142.911 18.7931L142.909 21.6675C142.909 22.4583 142.86 23.3328 143.025 24.0984C143.423 25.953 144.892 26.6859 146.386 27.5456C147.507 28.1907 148.718 28.84 149.803 29.5324C148.953 29.8864 148.382 30.0915 147.448 29.8813C147.175 29.8243 146.757 29.6656 146.511 29.5307C144.545 28.4607 142.608 27.2793 140.663 26.1796C138.542 24.9802 138.56 23.8122 138.562 21.6011L138.566 19.0167C138.567 18.1249 138.508 16.1089 138.626 15.3579C138.704 14.856 138.894 14.3782 139.183 13.9603C139.702 13.2231 140.538 12.8103 141.302 12.3713L143.264 11.2454L145.273 10.0817C146.16 9.56748 146.758 9.16342 147.787 8.98414Z" fill="white"/>
<path d="M195.103 0.251949C195.504 0.235636 196.318 0.372597 196.747 0.434689C197.624 0.561727 198.441 0.679843 199.327 0.748623C200.324 0.825813 201.321 0.888518 202.319 0.936721C202.574 0.948588 203.972 0.991576 204.1 1.02995C204.076 1.11146 203.922 1.2186 203.846 1.27994C203.889 1.38149 204.013 1.43319 204.119 1.50155C204.033 1.55309 203.854 1.66309 203.764 1.69039C203.62 1.73413 203.457 1.73003 203.318 1.79795C203.318 1.90209 203.714 2.43524 203.807 2.57035C203.484 2.46073 203.158 2.30124 202.833 2.17491C202.824 1.95172 202.828 1.81534 202.844 1.5929C202.373 1.64213 201.604 1.6819 201.206 1.91984C201.138 1.96043 200.955 2.15336 200.892 2.22072C201.744 2.45004 201.76 2.45336 202.057 3.28563L201.476 3.6108C201.616 3.88154 201.705 4.08947 201.82 4.37295C201.163 3.91817 201.063 3.84349 200.286 3.69547C200.653 4.23453 200.8 4.34144 201.253 4.76705C200.791 5.63608 200.243 5.64488 199.342 5.80875C199.604 6.02722 199.888 6.31229 200.151 6.54794C199.968 6.64799 199.64 6.88527 199.456 7.01034C199.359 6.89823 199.184 6.66597 199.044 6.65471L199.015 6.70762C199.115 7.11522 199.3 7.2797 199.547 7.60046C198.716 7.09952 198.655 7.00629 198.525 6.06667L198.188 6.2309C197.971 6.0148 197.721 5.73328 197.549 5.48185C197.139 5.81654 196.511 6.07281 196.375 6.61666C196.302 6.90653 196.233 6.94428 195.998 7.1031C195.457 5.90154 195.687 5.83589 194.466 5.31611C193.629 5.11337 193.367 5.19137 192.488 4.84509L192.67 5.3125C192.89 5.26449 193.112 5.22454 193.335 5.1927C193.46 5.2663 193.769 5.51661 193.898 5.61698C193.393 5.7999 192.402 6.312 191.88 6.56722C191.475 6.00575 191.042 5.55703 190.672 4.956C190.66 4.69577 190.676 4.43506 190.719 4.17808L190.044 4.2028C189.896 4.20717 189.754 4.23081 189.655 4.13823C189.614 4.01252 189.672 3.76741 189.691 3.61928L189.65 3.5912C189.398 3.71522 189.242 3.97689 189.096 4.2036C188.771 3.51371 188.708 3.46851 187.992 3.20341C188.145 3.33332 188.384 3.49414 188.553 3.61405C188.477 3.7896 188.49 3.84165 188.351 3.93401C188.104 3.93116 187.772 3.4984 187.456 3.29006C187.008 3.58636 186.434 3.93434 185.918 4.09034C185.678 4.16249 185.507 4.10892 185.279 4.04009C185.278 3.74853 185.283 3.62949 185.331 3.34304C185.61 3.34618 185.786 3.35009 186.06 3.38669C186.061 3.28609 186.058 3.06342 186.084 2.97316C186.205 2.54545 187.087 2.55236 187.277 2.30733C187.285 2.22296 187.281 2.19475 187.324 2.12417C187.406 2.14236 187.519 2.27764 187.59 2.34761C188.008 2.26812 189.076 2.0755 189.395 1.79438C189.325 1.71523 189.084 1.77709 188.931 1.67654C188.856 1.55635 188.854 1.3424 188.841 1.19379C188.683 1.43242 188.289 1.9347 188.099 2.13605C187.907 2.01048 187.827 1.96843 187.619 1.87449C187.52 1.88852 187.421 1.9019 187.322 1.91463C187.174 1.86338 187.12 1.83699 187.135 1.68129C187.414 1.24297 189.037 0.669506 189.582 0.817648C190.035 0.940705 190.514 1.35545 190.943 1.00477C191.535 0.982393 192.128 0.975117 192.72 0.982942C192.883 0.829721 192.995 0.720084 193.182 0.592966C194.196 0.56059 194.17 0.483816 195.103 0.251949Z" fill="white"/>
<path d="M188.502 13.1415C189.438 13.0962 191.236 13.1762 192.109 13.4421C192.062 14.3059 192.1 15.5135 192.102 16.3947C191.683 16.3445 191.165 16.231 190.728 16.1681C189.468 15.9866 188.461 16.0259 187.22 16.2237C187.271 17.1429 187.233 18.4655 187.233 19.406L187.234 25.4118L186.871 25.4279L182.872 25.4298C182.823 24.7767 182.838 24.0017 182.839 23.34L182.84 20.2549L182.837 16.575C182.837 16.03 182.78 14.4745 182.93 14.0521C183.081 13.9119 183.644 13.8167 183.865 13.765C185.482 13.3878 186.852 13.1954 188.502 13.1415Z" fill="white"/>
<path d="M159.563 13.5529C159.675 13.6709 159.63 17.2077 159.63 17.6399L159.627 25.3912C159.012 25.0118 158.248 24.6032 157.609 24.2414L153.032 21.6522C152.712 21.4345 151.767 20.9257 151.388 20.7162C150.737 20.3567 149.812 19.7717 149.177 19.4815C150.344 18.7207 151.862 17.9154 153.102 17.2117L159.563 13.5529Z" fill="white"/>
<path d="M165.333 14.7089L165.374 14.7196C165.378 14.7256 165.419 14.7859 165.419 14.7859C165.413 15.5552 165.411 16.3254 165.411 17.0945L165.41 22.7057C165.41 23.5917 165.438 24.5443 165.415 25.4212C164.14 25.4769 162.458 25.4262 161.154 25.4327C161.101 25.4306 161.088 25.4126 161.047 25.3788C161.003 25.2159 161.013 24.464 161.013 24.255L161.013 22.0754L161.011 18.5832C161.009 17.9439 160.989 17.1638 161.021 16.5344C161.287 16.3785 161.738 16.1853 162.024 16.0568C162.695 15.7534 163.373 15.4672 164.058 15.1985C164.48 15.0333 164.921 14.8911 165.333 14.7089Z" fill="white"/>
<path d="M190.474 27.6869C191.743 27.6051 193.136 27.8687 193.296 29.3607C193.384 30.181 193.377 31.1136 193.355 31.9423C193.306 33.7503 193.786 35.612 191.442 35.9691C190.146 36.1061 188.731 35.7459 188.578 34.2451C188.524 33.4442 188.488 32.5904 188.523 31.7852C188.604 29.9167 188.032 28.0409 190.474 27.6869ZM191.009 34.6745C191.17 34.6246 191.346 34.5749 191.438 34.4203C191.664 34.038 191.619 29.8001 191.468 29.3285C191.432 29.216 191.358 29.1256 191.251 29.0724C191.151 29.0224 191.029 28.9999 190.919 28.9827C190.432 29.0738 190.37 29.2715 190.341 29.7509C190.318 30.4287 190.313 31.1215 190.323 31.7997C190.333 32.6067 190.279 33.4287 190.393 34.2269C190.441 34.5592 190.691 34.6874 191.009 34.6745Z" fill="white"/>
<path d="M137.243 14.8196L137.295 14.8583C137.322 15.1521 137.304 15.5939 137.304 15.9012L137.304 17.8436L137.31 24.1255C136.367 23.6543 135.4 23.0332 134.469 22.5253C134.088 22.3175 133.727 22.0757 133.33 21.8922C132.625 21.4719 131.609 21.043 131.23 20.3547C130.988 19.9169 130.934 19.4002 131.081 18.9224C131.151 18.6931 131.365 18.2748 131.554 18.1201C132.113 17.6634 132.876 17.2845 133.503 16.9251C134.74 16.2056 135.987 15.5037 137.243 14.8196Z" fill="white"/>
<path d="M187.112 4.18922C187.19 4.17619 187.548 4.16486 187.645 4.1601C187.661 4.23553 187.701 4.43264 187.755 4.48436C188.179 4.8589 188.877 4.6409 189.386 4.64786C189.592 4.65064 190.344 4.64032 190.465 4.79953C190.402 4.88283 190.362 4.92145 190.289 4.99277C190.303 5.06557 191.516 6.59041 191.657 6.77987C192.001 6.74677 192.39 6.72115 192.721 6.63481C192.31 7.27435 191.61 7.91025 191.448 8.62605C191.421 8.74556 191.424 9.20979 191.424 9.35648C191.122 9.47959 190.941 9.54759 190.682 9.7465C190.442 10.514 190.646 10.9887 189.776 11.4927C189.387 11.5078 188.997 11.4967 188.608 11.4596C188.398 11.1603 187.815 10.0788 187.702 9.73816C187.792 9.59238 187.939 9.39286 188.04 9.24751C187.844 8.53192 187.6 8.38336 187.442 7.40681C185.928 7.55155 185.837 7.59389 184.353 7.33484C184.254 6.87505 184.194 6.16484 184.197 5.69093C184.231 5.64072 184.264 5.59106 184.304 5.54706C185.495 4.2295 185.466 4.3149 187.112 4.18922Z" fill="white"/>
<path d="M179.836 1.0192L179.906 1.00726L179.938 1.04577C179.87 1.19012 179.017 1.68562 178.801 1.84346C178.979 2.00211 179.217 2.25446 179.392 2.42836C179.825 1.9536 179.887 1.81062 180.527 1.73867C181.765 1.59946 181.692 1.91499 182.296 2.82722C182.03 2.88126 181.18 3.11076 180.903 3.20814C180.246 3.43904 179.064 4.15377 178.572 4.66724C178.477 4.76722 178.324 5.07647 178.259 5.20546L177.663 4.78003C177.155 4.879 176.552 4.95945 176.038 5.01836C176.14 5.35301 176.236 5.68948 176.327 6.0276C176.542 5.94892 176.849 5.8166 177.066 5.81479C177.319 5.88922 177.889 6.94524 178.133 7.2502C177.817 7.13502 177.653 7.07417 177.355 6.9176C176.864 6.71515 176.382 6.4486 175.897 6.24232C175.208 5.94888 174.866 5.65985 174.322 5.16536C174.308 5.34998 174.284 5.5438 174.264 5.72868C174.157 5.54777 174.053 5.31306 173.947 5.13967C173.329 4.13533 173.599 4.06892 174.435 3.41891C174.419 2.95863 174.415 2.49802 174.422 2.03752C173.502 2.05439 172.457 2.14698 171.524 2.19229C171.864 1.97695 173.69 1.12102 174.003 1.09036C175.808 0.913222 178.041 1.11544 179.836 1.0192Z" fill="white"/>
<path d="M202.463 27.7866C202.996 27.7876 203.771 27.8108 204.283 27.7672C203.697 28.7918 203.132 29.9113 202.553 30.9547C202.899 30.8373 203.296 30.8226 203.673 30.9133C205.215 31.2778 205.018 33.0314 204.958 34.238C204.924 34.9188 204.537 35.364 203.977 35.6955C202.967 36.2089 201.046 36.1158 200.401 35.0861C199.993 34.4347 200.024 32.6952 200.222 31.9471C200.447 31.1003 201.181 30.0619 201.575 29.2567C201.736 28.9488 202.226 27.9296 202.463 27.7866ZM202.692 34.6753C202.825 34.6076 203.055 34.4821 203.086 34.3148C203.178 33.82 203.143 33.2831 203.131 32.78C203.12 32.2551 202.88 32.1246 202.385 32.1472C201.946 32.3015 201.893 32.5913 201.931 33.0456C201.991 33.7784 201.643 34.7015 202.692 34.6753Z" fill="white"/>
<path d="M184.816 27.691C184.836 27.6888 184.857 27.6869 184.877 27.6852C187.681 27.4491 188.226 30.0731 186.77 31.9446C186.095 32.8115 185.431 33.7401 184.711 34.5688C185.603 34.5301 186.625 34.5579 187.536 34.5445C187.53 34.9866 187.516 35.4585 187.538 35.8978L183.91 35.8922C183.504 35.8908 183.099 35.8947 182.693 35.904C182.659 34.6715 182.597 34.7131 183.362 33.7187C183.72 33.2474 184.082 32.7796 184.449 32.3156C185.068 31.5282 185.657 30.9625 185.734 29.951C185.781 29.339 185.416 28.6429 184.776 29.0997C184.503 29.2948 184.523 29.9322 184.518 30.2263C183.992 30.2299 183.282 30.2149 182.777 30.2667C182.73 28.6764 183.05 27.8653 184.816 27.691Z" fill="white"/>
<path d="M196.469 27.6875C197.161 27.6162 197.989 27.7545 198.543 28.1993C198.923 28.5034 199.127 28.9507 199.178 29.4263C199.234 29.9384 199.192 30.4938 199.006 30.9771C198.689 31.802 197.01 33.7966 196.381 34.5704C197.254 34.5184 198.266 34.5751 199.189 34.5348C199.184 34.9879 199.172 35.4524 199.192 35.9044C198.019 35.8888 196.847 35.8846 195.675 35.8919C195.232 35.8891 194.789 35.8938 194.346 35.906C194.397 34.5746 194.2 34.7725 195.076 33.6513C195.519 33.0884 195.958 32.5226 196.394 31.9539C196.827 31.3862 197.309 30.8594 197.38 30.1239C197.412 29.7935 197.458 29.4869 197.227 29.2049C197.043 28.98 196.689 28.8505 196.448 29.0665C196.165 29.3242 196.188 29.8731 196.168 30.2297C195.619 30.2266 194.968 30.2185 194.429 30.264C194.301 28.6813 194.854 27.8735 196.469 27.6875Z" fill="white"/>
<path d="M179.921 7.149C180.362 7.11207 180.877 7.13099 181.301 7.26164C181.454 7.4659 181.548 7.65871 181.666 7.88469C182.173 8.08645 183.052 8.32933 183.607 8.51261C183.37 9.00377 183.19 9.63519 182.886 10.052C182.797 10.1752 182.318 10.4285 182.231 10.5828C182.045 10.9127 182.076 11.1388 181.742 11.4064C181.449 11.641 181.156 11.7549 180.859 12.0025C180.742 12.4541 180.734 12.6797 180.93 13.0973C181.126 13.2839 181.181 13.3602 181.335 13.5833C180.695 13.257 179.917 12.7078 179.278 12.4333C179.22 11.673 179.396 10.816 179.299 10.0874C179.287 10.0009 178.997 9.77418 178.912 9.69297C178.484 9.28609 178.167 8.70567 177.8 8.22946C178.145 6.92089 178.756 7.24555 179.921 7.149Z" fill="white"/>
<path d="M203.387 7.14636C203.675 7.33297 203.688 7.9162 203.83 8.11576C204.287 8.76032 204.412 8.70621 203.864 9.36478C203.687 9.57636 203.497 9.80891 203.273 10.0246C202.511 10.2215 202.078 9.95628 201.448 9.56495L200.223 9.63266C199.931 9.65158 199.659 9.66446 199.369 9.71788C199.354 9.36102 199.37 8.86896 199.389 8.51705C200.182 8.04588 200.914 7.70545 201.798 7.43663C202.801 7.13182 202.285 7.53541 203.128 7.79381C203.198 7.5548 203.285 7.37307 203.387 7.14636Z" fill="white"/>
<path d="M161.015 13.5281C161.229 13.5707 162.274 13.5634 162.536 13.5606C163.485 13.5502 164.489 13.5822 165.433 13.5356C165.061 13.7714 164.399 13.9912 163.96 14.1643C162.962 14.5565 161.981 14.9867 161.017 15.4538C161.01 15.0643 160.967 13.8506 161.015 13.5281Z" fill="white"/>
<path d="M186.191 0.0391993C186.547 0.03528 186.875 0.034692 187.231 0C186.341 0.801648 185.659 0.823232 184.616 1.323C184.319 1.46524 184.132 1.70414 183.883 1.88721C183.851 1.91041 183.813 1.87582 183.769 1.85131C183.576 1.66615 183.426 1.5267 183.259 1.31818L183.48 0.622989C183.214 0.493467 182.953 0.355298 182.695 0.208701C183.727 0.220953 185.115 0.0880172 186.191 0.0391993Z" fill="white"/>
<path d="M180.949 0.541504C181.063 0.555443 181.176 0.570826 181.289 0.587653C181.843 0.670484 181.974 0.852038 182.289 1.27654C181.87 1.46591 181.713 1.57465 181.259 1.49919C181.141 1.46668 181.117 1.48143 181.046 1.40192C181.121 1.31069 181.512 1.25878 181.653 1.23298C181.414 1.10945 180.59 0.869565 180.515 0.717489L180.553 0.651643C180.669 0.573558 180.811 0.56316 180.949 0.541504Z" fill="white"/>
<path d="M201.144 6.25466C201.27 6.25227 201.319 6.24444 201.397 6.33731C201.439 6.58383 201.311 7.13209 201.164 7.35468C201.102 7.44867 200.685 7.3327 200.564 7.30346C200.39 7.19117 200.277 6.93376 200.185 6.74975C200.689 6.6776 200.774 6.58971 201.144 6.25466Z" fill="white"/>
<path d="M202.682 6.43744C202.708 6.44029 202.724 6.44274 202.748 6.45022C203.276 6.61062 203.849 6.51551 204.356 6.76845C204.401 6.79069 204.686 6.95852 204.688 6.99573C204.694 7.21009 204.681 7.17014 204.81 7.32667C204.783 7.36226 204.78 7.35735 204.74 7.38294C204.201 7.16447 202.893 6.97354 202.682 6.43744Z" fill="white"/>
<path d="M192.54 9.19226C192.573 9.23398 192.561 9.23518 192.563 9.30029C192.454 9.50974 192.022 10.3728 191.864 10.4727L191.771 10.4399L191.76 10.4171C191.361 9.60445 191.868 9.48917 192.54 9.19226Z" fill="white"/>
<path d="M203.061 3.18288C203.115 3.15533 203.148 3.15854 203.208 3.15521L203.241 3.20387C203.196 3.41083 202.944 3.436 202.857 3.5213C202.779 3.59838 203.032 3.87287 202.939 4.05767C202.844 4.24589 202.596 4.32551 202.408 4.40416C202.379 4.40857 202.349 4.4125 202.32 4.41604C202.205 4.42939 202.169 4.42921 202.088 4.36453L202.103 4.28433C202.309 4.06048 202.452 4.02991 202.735 3.93758C202.643 3.69608 202.588 3.45731 202.525 3.20714L203.061 3.18288Z" fill="white"/>
<rect x="118" y="2" width="1" height="32" fill="white"/>
<defs>
<clipPath id="clip0_5_45">
<rect width="106" height="26" fill="white" transform="translate(0 5)"/>
</clipPath>
</defs>
</svg>
